<svg width="66" height="52" viewBox="0 0 66 52" fill="none" xmlns="http://www.w3.org/2000/svg">
<path fill-rule="evenodd" clip-rule="evenodd" d="M32.7504 5.36138C34.1949 5.36138 35.3658 4.19044 35.3658 2.746C35.3658 1.30156 34.1949 0.130615 32.7504 0.130615C31.306 0.130615 30.135 1.30156 30.135 2.746C30.135 4.19044 31.306 5.36138 32.7504 5.36138ZM5.28887 11.8998C5.28887 13.3443 4.11793 14.5152 2.67349 14.5152C1.22905 14.5152 0.0581055 13.3443 0.0581055 11.8998C0.0581055 10.4554 1.22905 9.28446 2.67349 9.28446C4.11793 9.28446 5.28887 10.4554 5.28887 11.8998ZM32.7504 10.5922L41.9321 29.5676L61.5196 18.4383L53.4841 51.1306H52.3658L13.135 51.1306H11.9375L3.98118 18.4383L23.5687 29.5676L32.7504 10.5922ZM65.4427 11.8998C65.4427 13.3443 64.2718 14.5152 62.8273 14.5152C61.3829 14.5152 60.212 13.3443 60.212 11.8998C60.212 10.4554 61.3829 9.28446 62.8273 9.28446C64.2718 9.28446 65.4427 10.4554 65.4427 11.8998Z" fill="black" fill-opacity="0.69"/>
</svg>
